<mxfile host="Electron" agent="Mozilla/5.0 (X11; Linux x86_64) AppleWebKit/537.36 (KHTML, like Gecko) draw.io/26.2.2 Chrome/134.0.6998.178 Electron/35.1.2 Safari/537.36" version="26.2.2">
  <diagram name="Page-1" id="un9DhXBzZ5aLma7ppv-W">
    <mxGraphModel dx="1681" dy="992" grid="1" gridSize="10" guides="1" tooltips="1" connect="1" arrows="1" fold="1" page="1" pageScale="1" pageWidth="1654" pageHeight="2336" math="0" shadow="0">
      <root>
        <mxCell id="0" />
        <mxCell id="1" parent="0" />
        <mxCell id="SS5DbQR998O7tuINjmSE-1" value="MyWaze Event Notification" style="swimlane;html=1;childLayout=stackLayout;resizeParent=1;resizeParentMax=0;horizontal=0;startSize=20;horizontalStack=0;whiteSpace=wrap;" parent="1" vertex="1">
          <mxGeometry x="50" y="1020" width="1540" height="760" as="geometry" />
        </mxCell>
        <mxCell id="SS5DbQR998O7tuINjmSE-24" style="edgeStyle=orthogonalEdgeStyle;rounded=0;orthogonalLoop=1;jettySize=auto;html=1;entryX=0.5;entryY=1;entryDx=0;entryDy=0;entryPerimeter=0;" parent="SS5DbQR998O7tuINjmSE-1" source="SS5DbQR998O7tuINjmSE-18" target="SS5DbQR998O7tuINjmSE-23" edge="1">
          <mxGeometry relative="1" as="geometry" />
        </mxCell>
        <mxCell id="SS5DbQR998O7tuINjmSE-31" style="edgeStyle=orthogonalEdgeStyle;rounded=0;orthogonalLoop=1;jettySize=auto;html=1;entryX=0.5;entryY=1;entryDx=0;entryDy=0;entryPerimeter=0;" parent="SS5DbQR998O7tuINjmSE-1" source="SS5DbQR998O7tuINjmSE-28" target="SS5DbQR998O7tuINjmSE-11" edge="1">
          <mxGeometry relative="1" as="geometry" />
        </mxCell>
        <mxCell id="SS5DbQR998O7tuINjmSE-32" style="edgeStyle=orthogonalEdgeStyle;rounded=0;orthogonalLoop=1;jettySize=auto;html=1;entryX=0.5;entryY=1;entryDx=0;entryDy=0;entryPerimeter=0;" parent="SS5DbQR998O7tuINjmSE-1" source="SS5DbQR998O7tuINjmSE-27" target="SS5DbQR998O7tuINjmSE-11" edge="1">
          <mxGeometry relative="1" as="geometry" />
        </mxCell>
        <mxCell id="SS5DbQR998O7tuINjmSE-2" value="System" style="swimlane;html=1;startSize=20;horizontal=0;" parent="SS5DbQR998O7tuINjmSE-1" vertex="1">
          <mxGeometry x="20" width="1520" height="420" as="geometry">
            <mxRectangle x="20" width="1620" height="30" as="alternateBounds" />
          </mxGeometry>
        </mxCell>
        <mxCell id="SS5DbQR998O7tuINjmSE-11" value="Check for Nearby Events" style="points=[[0.25,0,0],[0.5,0,0],[0.75,0,0],[1,0.25,0],[1,0.5,0],[1,0.75,0],[0.75,1,0],[0.5,1,0],[0.25,1,0],[0,0.75,0],[0,0.5,0],[0,0.25,0]];shape=mxgraph.bpmn.task2;whiteSpace=wrap;rectStyle=rounded;size=10;html=1;container=1;expand=0;collapsible=0;taskMarker=abstract;" parent="SS5DbQR998O7tuINjmSE-2" vertex="1">
          <mxGeometry x="280" y="230" width="105" height="70" as="geometry" />
        </mxCell>
        <mxCell id="SS5DbQR998O7tuINjmSE-12" value="Events DS" style="shape=datastore;html=1;labelPosition=center;verticalLabelPosition=bottom;align=center;verticalAlign=top;" parent="SS5DbQR998O7tuINjmSE-2" vertex="1">
          <mxGeometry x="220" y="120" width="40" height="40" as="geometry" />
        </mxCell>
        <mxCell id="SS5DbQR998O7tuINjmSE-13" value="User DS" style="shape=datastore;html=1;labelPosition=center;verticalLabelPosition=bottom;align=center;verticalAlign=top;" parent="SS5DbQR998O7tuINjmSE-2" vertex="1">
          <mxGeometry x="370" y="108" width="40" height="40" as="geometry" />
        </mxCell>
        <mxCell id="SS5DbQR998O7tuINjmSE-23" value="Every 6 hours" style="points=[[0.145,0.145,0],[0.5,0,0],[0.855,0.145,0],[1,0.5,0],[0.855,0.855,0],[0.5,1,0],[0.145,0.855,0],[0,0.5,0]];shape=mxgraph.bpmn.event;html=1;verticalLabelPosition=middle;labelBackgroundColor=#ffffff;verticalAlign=middle;align=left;perimeter=ellipsePerimeter;outlineConnect=0;aspect=fixed;outline=catching;symbol=timer;labelPosition=right;" parent="SS5DbQR998O7tuINjmSE-2" vertex="1">
          <mxGeometry x="60" y="290" width="30" height="30" as="geometry" />
        </mxCell>
        <mxCell id="SS5DbQR998O7tuINjmSE-26" style="edgeStyle=orthogonalEdgeStyle;rounded=0;orthogonalLoop=1;jettySize=auto;html=1;entryX=0;entryY=0.5;entryDx=0;entryDy=0;entryPerimeter=0;exitX=0.5;exitY=0;exitDx=0;exitDy=0;exitPerimeter=0;" parent="SS5DbQR998O7tuINjmSE-2" source="SS5DbQR998O7tuINjmSE-23" target="SS5DbQR998O7tuINjmSE-11" edge="1">
          <mxGeometry relative="1" as="geometry" />
        </mxCell>
        <mxCell id="SS5DbQR998O7tuINjmSE-34" value="Any event?" style="points=[[0.25,0.25,0],[0.5,0,0],[0.75,0.25,0],[1,0.5,0],[0.75,0.75,0],[0.5,1,0],[0.25,0.75,0],[0,0.5,0]];shape=mxgraph.bpmn.gateway2;html=1;verticalLabelPosition=top;labelBackgroundColor=#ffffff;verticalAlign=bottom;align=center;perimeter=rhombusPerimeter;outlineConnect=0;outline=none;symbol=none;gwType=exclusive;labelPosition=center;" parent="SS5DbQR998O7tuINjmSE-2" vertex="1">
          <mxGeometry x="470" y="245" width="40" height="40" as="geometry" />
        </mxCell>
        <mxCell id="SS5DbQR998O7tuINjmSE-36" value="" style="points=[[0.145,0.145,0],[0.5,0,0],[0.855,0.145,0],[1,0.5,0],[0.855,0.855,0],[0.5,1,0],[0.145,0.855,0],[0,0.5,0]];shape=mxgraph.bpmn.event;html=1;verticalLabelPosition=bottom;labelBackgroundColor=#ffffff;verticalAlign=top;align=center;perimeter=ellipsePerimeter;outlineConnect=0;aspect=fixed;outline=end;symbol=terminate2;" parent="SS5DbQR998O7tuINjmSE-2" vertex="1">
          <mxGeometry x="1420" y="247.5" width="35" height="35" as="geometry" />
        </mxCell>
        <mxCell id="SS5DbQR998O7tuINjmSE-38" value="User DS" style="shape=datastore;html=1;labelPosition=center;verticalLabelPosition=bottom;align=center;verticalAlign=top;" parent="SS5DbQR998O7tuINjmSE-2" vertex="1">
          <mxGeometry x="705" y="68" width="40" height="40" as="geometry" />
        </mxCell>
        <mxCell id="SS5DbQR998O7tuINjmSE-39" value="Notification" style="shape=mxgraph.bpmn.data2;labelPosition=center;verticalLabelPosition=bottom;align=center;verticalAlign=top;size=15;html=1;" parent="SS5DbQR998O7tuINjmSE-2" vertex="1">
          <mxGeometry x="711.6700000000001" y="150" width="26.66" height="40" as="geometry" />
        </mxCell>
        <mxCell id="SS5DbQR998O7tuINjmSE-41" value="Notify User" style="points=[[0.25,0,0],[0.5,0,0],[0.75,0,0],[1,0.25,0],[1,0.5,0],[1,0.75,0],[0.75,1,0],[0.5,1,0],[0.25,1,0],[0,0.75,0],[0,0.5,0],[0,0.25,0]];shape=mxgraph.bpmn.task2;whiteSpace=wrap;rectStyle=rounded;size=10;html=1;container=1;expand=0;collapsible=0;taskMarker=abstract;" parent="SS5DbQR998O7tuINjmSE-2" vertex="1">
          <mxGeometry x="560" y="230" width="105" height="70" as="geometry" />
        </mxCell>
        <mxCell id="SS5DbQR998O7tuINjmSE-55" value="Send phone notification" style="points=[[0.25,0,0],[0.5,0,0],[0.75,0,0],[1,0.25,0],[1,0.5,0],[1,0.75,0],[0.75,1,0],[0.5,1,0],[0.25,1,0],[0,0.75,0],[0,0.5,0],[0,0.25,0]];shape=mxgraph.bpmn.task2;whiteSpace=wrap;rectStyle=rounded;size=10;html=1;container=1;expand=0;collapsible=0;taskMarker=abstract;" parent="SS5DbQR998O7tuINjmSE-2" vertex="1">
          <mxGeometry x="1090" y="235" width="90" height="60" as="geometry" />
        </mxCell>
        <mxCell id="SS5DbQR998O7tuINjmSE-59" value="Currently using app?" style="points=[[0.25,0.25,0],[0.5,0,0],[0.75,0.25,0],[1,0.5,0],[0.75,0.75,0],[0.5,1,0],[0.25,0.75,0],[0,0.5,0]];shape=mxgraph.bpmn.gateway2;html=1;verticalLabelPosition=top;labelBackgroundColor=#ffffff;verticalAlign=bottom;align=center;perimeter=rhombusPerimeter;outlineConnect=0;outline=none;symbol=none;gwType=exclusive;labelPosition=center;" parent="SS5DbQR998O7tuINjmSE-2" vertex="1">
          <mxGeometry x="930" y="245" width="40" height="40" as="geometry" />
        </mxCell>
        <mxCell id="SS5DbQR998O7tuINjmSE-60" value="Show Popup" style="points=[[0.25,0,0],[0.5,0,0],[0.75,0,0],[1,0.25,0],[1,0.5,0],[1,0.75,0],[0.75,1,0],[0.5,1,0],[0.25,1,0],[0,0.75,0],[0,0.5,0],[0,0.25,0]];shape=mxgraph.bpmn.task2;whiteSpace=wrap;rectStyle=rounded;size=10;html=1;container=1;expand=0;collapsible=0;taskMarker=abstract;" parent="SS5DbQR998O7tuINjmSE-2" vertex="1">
          <mxGeometry x="1090" y="340" width="90" height="60" as="geometry" />
        </mxCell>
        <mxCell id="SS5DbQR998O7tuINjmSE-61" value="Store the event notification in the user inbox" style="points=[[0.25,0,0],[0.5,0,0],[0.75,0,0],[1,0.25,0],[1,0.5,0],[1,0.75,0],[0.75,1,0],[0.5,1,0],[0.25,1,0],[0,0.75,0],[0,0.5,0],[0,0.25,0]];shape=mxgraph.bpmn.task2;whiteSpace=wrap;rectStyle=rounded;size=10;html=1;container=1;expand=0;collapsible=0;taskMarker=abstract;" parent="SS5DbQR998O7tuINjmSE-2" vertex="1">
          <mxGeometry x="790" y="235" width="90" height="60" as="geometry" />
        </mxCell>
        <mxCell id="SS5DbQR998O7tuINjmSE-67" value="" style="points=[[0.25,0.25,0],[0.5,0,0],[0.75,0.25,0],[1,0.5,0],[0.75,0.75,0],[0.5,1,0],[0.25,0.75,0],[0,0.5,0]];shape=mxgraph.bpmn.gateway2;html=1;verticalLabelPosition=bottom;labelBackgroundColor=#ffffff;verticalAlign=top;align=center;perimeter=rhombusPerimeter;outlineConnect=0;outline=none;symbol=none;gwType=exclusive;" parent="SS5DbQR998O7tuINjmSE-2" vertex="1">
          <mxGeometry x="1330" y="245" width="40" height="40" as="geometry" />
        </mxCell>
        <mxCell id="KeQbcnE_eU9TIYmiH5Cr-1" style="edgeStyle=orthogonalEdgeStyle;rounded=0;orthogonalLoop=1;jettySize=auto;html=1;entryX=0;entryY=0.5;entryDx=0;entryDy=0;entryPerimeter=0;" edge="1" parent="SS5DbQR998O7tuINjmSE-2" source="SS5DbQR998O7tuINjmSE-11" target="SS5DbQR998O7tuINjmSE-34">
          <mxGeometry relative="1" as="geometry" />
        </mxCell>
        <mxCell id="KeQbcnE_eU9TIYmiH5Cr-2" style="edgeStyle=orthogonalEdgeStyle;rounded=0;orthogonalLoop=1;jettySize=auto;html=1;entryX=0;entryY=0.5;entryDx=0;entryDy=0;entryPerimeter=0;" edge="1" parent="SS5DbQR998O7tuINjmSE-2" source="SS5DbQR998O7tuINjmSE-34" target="SS5DbQR998O7tuINjmSE-41">
          <mxGeometry relative="1" as="geometry" />
        </mxCell>
        <mxCell id="KeQbcnE_eU9TIYmiH5Cr-8" value="yes" style="edgeLabel;html=1;align=center;verticalAlign=bottom;resizable=0;points=[];labelPosition=center;verticalLabelPosition=top;" vertex="1" connectable="0" parent="KeQbcnE_eU9TIYmiH5Cr-2">
          <mxGeometry x="-0.0667" relative="1" as="geometry">
            <mxPoint x="-3" as="offset" />
          </mxGeometry>
        </mxCell>
        <mxCell id="KeQbcnE_eU9TIYmiH5Cr-4" value="" style="points=[[0.145,0.145,0],[0.5,0,0],[0.855,0.145,0],[1,0.5,0],[0.855,0.855,0],[0.5,1,0],[0.145,0.855,0],[0,0.5,0]];shape=mxgraph.bpmn.event;html=1;verticalLabelPosition=bottom;labelBackgroundColor=#ffffff;verticalAlign=top;align=center;perimeter=ellipsePerimeter;outlineConnect=0;aspect=fixed;outline=end;symbol=terminate2;" vertex="1" parent="SS5DbQR998O7tuINjmSE-2">
          <mxGeometry x="472.5" y="330" width="35" height="35" as="geometry" />
        </mxCell>
        <mxCell id="KeQbcnE_eU9TIYmiH5Cr-5" style="edgeStyle=orthogonalEdgeStyle;rounded=0;orthogonalLoop=1;jettySize=auto;html=1;entryX=0.5;entryY=0;entryDx=0;entryDy=0;entryPerimeter=0;labelPosition=right;verticalLabelPosition=middle;align=left;verticalAlign=middle;" edge="1" parent="SS5DbQR998O7tuINjmSE-2">
          <mxGeometry relative="1" as="geometry">
            <mxPoint x="489.86" y="285" as="sourcePoint" />
            <mxPoint x="489.86" y="330" as="targetPoint" />
          </mxGeometry>
        </mxCell>
        <mxCell id="KeQbcnE_eU9TIYmiH5Cr-6" value="no" style="edgeLabel;html=1;align=right;verticalAlign=middle;resizable=0;points=[];labelPosition=left;verticalLabelPosition=middle;" vertex="1" connectable="0" parent="KeQbcnE_eU9TIYmiH5Cr-5">
          <mxGeometry x="-0.531" y="1" relative="1" as="geometry">
            <mxPoint x="17" y="4" as="offset" />
          </mxGeometry>
        </mxCell>
        <mxCell id="SS5DbQR998O7tuINjmSE-58" value="" style="points=[[0.25,0.25,0],[0.5,0,0],[0.75,0.25,0],[1,0.5,0],[0.75,0.75,0],[0.5,1,0],[0.25,0.75,0],[0,0.5,0]];shape=mxgraph.bpmn.gateway2;html=1;verticalLabelPosition=bottom;labelBackgroundColor=#ffffff;verticalAlign=top;align=center;perimeter=rhombusPerimeter;outlineConnect=0;outline=none;symbol=none;gwType=exclusive;" parent="SS5DbQR998O7tuINjmSE-2" vertex="1">
          <mxGeometry x="698.3299999999999" y="245" width="40" height="40" as="geometry" />
        </mxCell>
        <mxCell id="KeQbcnE_eU9TIYmiH5Cr-3" style="edgeStyle=orthogonalEdgeStyle;rounded=0;orthogonalLoop=1;jettySize=auto;html=1;entryX=0;entryY=0.5;entryDx=0;entryDy=0;entryPerimeter=0;" edge="1" parent="SS5DbQR998O7tuINjmSE-2" source="SS5DbQR998O7tuINjmSE-41" target="SS5DbQR998O7tuINjmSE-58">
          <mxGeometry relative="1" as="geometry" />
        </mxCell>
        <mxCell id="KeQbcnE_eU9TIYmiH5Cr-10" value="" style="fontSize=12;html=1;endFill=0;startFill=0;endSize=6;startSize=6;dashed=1;dashPattern=1 4;endArrow=openThin;startArrow=none;rounded=0;exitX=1;exitY=0.5;exitDx=0;exitDy=0;entryX=0.5;entryY=0;entryDx=0;entryDy=0;entryPerimeter=0;" edge="1" parent="SS5DbQR998O7tuINjmSE-2" source="SS5DbQR998O7tuINjmSE-12" target="SS5DbQR998O7tuINjmSE-11">
          <mxGeometry width="160" relative="1" as="geometry">
            <mxPoint x="300" y="240" as="sourcePoint" />
            <mxPoint x="460" y="240" as="targetPoint" />
          </mxGeometry>
        </mxCell>
        <mxCell id="KeQbcnE_eU9TIYmiH5Cr-11" value="" style="fontSize=12;html=1;endFill=0;startFill=0;endSize=6;startSize=6;dashed=1;dashPattern=1 4;endArrow=openThin;startArrow=none;rounded=0;exitX=0.5;exitY=1;exitDx=0;exitDy=0;entryX=0.75;entryY=0;entryDx=0;entryDy=0;entryPerimeter=0;" edge="1" parent="SS5DbQR998O7tuINjmSE-2" source="SS5DbQR998O7tuINjmSE-13" target="SS5DbQR998O7tuINjmSE-11">
          <mxGeometry width="160" relative="1" as="geometry">
            <mxPoint x="399.5" y="120" as="sourcePoint" />
            <mxPoint x="472.5" y="210" as="targetPoint" />
          </mxGeometry>
        </mxCell>
        <mxCell id="KeQbcnE_eU9TIYmiH5Cr-12" value="" style="fontSize=12;html=1;endFill=0;startFill=0;endSize=6;startSize=6;dashed=1;dashPattern=1 4;endArrow=openThin;startArrow=none;rounded=0;exitX=0.75;exitY=0;exitDx=0;exitDy=0;entryX=0;entryY=0.5;entryDx=0;entryDy=0;entryPerimeter=0;exitPerimeter=0;" edge="1" parent="SS5DbQR998O7tuINjmSE-2" source="SS5DbQR998O7tuINjmSE-41" target="SS5DbQR998O7tuINjmSE-39">
          <mxGeometry width="160" relative="1" as="geometry">
            <mxPoint x="628.13" y="129" as="sourcePoint" />
            <mxPoint x="597.13" y="211" as="targetPoint" />
          </mxGeometry>
        </mxCell>
        <mxCell id="KeQbcnE_eU9TIYmiH5Cr-13" value="" style="fontSize=12;html=1;endFill=0;startFill=0;endSize=6;startSize=6;dashed=1;dashPattern=1 4;endArrow=openThin;startArrow=none;rounded=0;exitX=0.5;exitY=0;exitDx=0;exitDy=0;entryX=0;entryY=0.5;entryDx=0;entryDy=0;exitPerimeter=0;" edge="1" parent="SS5DbQR998O7tuINjmSE-2" source="SS5DbQR998O7tuINjmSE-41" target="SS5DbQR998O7tuINjmSE-38">
          <mxGeometry width="160" relative="1" as="geometry">
            <mxPoint x="628.13" y="129" as="sourcePoint" />
            <mxPoint x="597.13" y="211" as="targetPoint" />
          </mxGeometry>
        </mxCell>
        <mxCell id="KeQbcnE_eU9TIYmiH5Cr-14" style="edgeStyle=orthogonalEdgeStyle;rounded=0;orthogonalLoop=1;jettySize=auto;html=1;entryX=0;entryY=0.5;entryDx=0;entryDy=0;entryPerimeter=0;" edge="1" parent="SS5DbQR998O7tuINjmSE-2" source="SS5DbQR998O7tuINjmSE-58" target="SS5DbQR998O7tuINjmSE-61">
          <mxGeometry relative="1" as="geometry" />
        </mxCell>
        <mxCell id="KeQbcnE_eU9TIYmiH5Cr-15" style="edgeStyle=orthogonalEdgeStyle;rounded=0;orthogonalLoop=1;jettySize=auto;html=1;entryX=0;entryY=0.5;entryDx=0;entryDy=0;entryPerimeter=0;" edge="1" parent="SS5DbQR998O7tuINjmSE-2" source="SS5DbQR998O7tuINjmSE-61" target="SS5DbQR998O7tuINjmSE-59">
          <mxGeometry relative="1" as="geometry" />
        </mxCell>
        <mxCell id="KeQbcnE_eU9TIYmiH5Cr-16" style="edgeStyle=orthogonalEdgeStyle;rounded=0;orthogonalLoop=1;jettySize=auto;html=1;entryX=0;entryY=0.5;entryDx=0;entryDy=0;entryPerimeter=0;labelPosition=center;verticalLabelPosition=top;align=center;verticalAlign=bottom;" edge="1" parent="SS5DbQR998O7tuINjmSE-2" source="SS5DbQR998O7tuINjmSE-59" target="SS5DbQR998O7tuINjmSE-55">
          <mxGeometry relative="1" as="geometry" />
        </mxCell>
        <mxCell id="KeQbcnE_eU9TIYmiH5Cr-18" value="no" style="edgeLabel;html=1;align=center;verticalAlign=bottom;resizable=0;points=[];labelPosition=center;verticalLabelPosition=top;" vertex="1" connectable="0" parent="KeQbcnE_eU9TIYmiH5Cr-16">
          <mxGeometry x="-0.2609" y="1" relative="1" as="geometry">
            <mxPoint as="offset" />
          </mxGeometry>
        </mxCell>
        <mxCell id="KeQbcnE_eU9TIYmiH5Cr-17" style="edgeStyle=orthogonalEdgeStyle;rounded=0;orthogonalLoop=1;jettySize=auto;html=1;entryX=0;entryY=0.5;entryDx=0;entryDy=0;entryPerimeter=0;" edge="1" parent="SS5DbQR998O7tuINjmSE-2" source="SS5DbQR998O7tuINjmSE-59" target="SS5DbQR998O7tuINjmSE-60">
          <mxGeometry relative="1" as="geometry">
            <Array as="points">
              <mxPoint x="950" y="370" />
            </Array>
          </mxGeometry>
        </mxCell>
        <mxCell id="KeQbcnE_eU9TIYmiH5Cr-19" value="yes" style="edgeLabel;html=1;align=center;verticalAlign=bottom;resizable=0;points=[];labelPosition=center;verticalLabelPosition=top;" vertex="1" connectable="0" parent="KeQbcnE_eU9TIYmiH5Cr-17">
          <mxGeometry x="0.3079" relative="1" as="geometry">
            <mxPoint as="offset" />
          </mxGeometry>
        </mxCell>
        <mxCell id="KeQbcnE_eU9TIYmiH5Cr-28" style="edgeStyle=orthogonalEdgeStyle;rounded=0;orthogonalLoop=1;jettySize=auto;html=1;entryX=0;entryY=0.5;entryDx=0;entryDy=0;entryPerimeter=0;" edge="1" parent="SS5DbQR998O7tuINjmSE-2" source="SS5DbQR998O7tuINjmSE-55" target="SS5DbQR998O7tuINjmSE-67">
          <mxGeometry relative="1" as="geometry" />
        </mxCell>
        <mxCell id="KeQbcnE_eU9TIYmiH5Cr-29" style="edgeStyle=orthogonalEdgeStyle;rounded=0;orthogonalLoop=1;jettySize=auto;html=1;entryX=0;entryY=0.5;entryDx=0;entryDy=0;entryPerimeter=0;" edge="1" parent="SS5DbQR998O7tuINjmSE-2" source="SS5DbQR998O7tuINjmSE-67" target="SS5DbQR998O7tuINjmSE-36">
          <mxGeometry relative="1" as="geometry" />
        </mxCell>
        <mxCell id="KeQbcnE_eU9TIYmiH5Cr-31" value="" style="fontSize=12;html=1;endFill=0;startFill=0;endSize=6;startSize=6;dashed=1;dashPattern=1 4;endArrow=openThin;startArrow=none;rounded=0;exitX=0;exitY=0;exitDx=26.66;exitDy=27.5;entryX=0.25;entryY=0;entryDx=0;entryDy=0;entryPerimeter=0;exitPerimeter=0;" edge="1" parent="SS5DbQR998O7tuINjmSE-2" source="SS5DbQR998O7tuINjmSE-39" target="SS5DbQR998O7tuINjmSE-61">
          <mxGeometry width="160" relative="1" as="geometry">
            <mxPoint x="780.25" y="220" as="sourcePoint" />
            <mxPoint x="853.25" y="160" as="targetPoint" />
          </mxGeometry>
        </mxCell>
        <mxCell id="SS5DbQR998O7tuINjmSE-3" value="User" style="swimlane;html=1;startSize=20;horizontal=0;" parent="SS5DbQR998O7tuINjmSE-1" vertex="1">
          <mxGeometry x="20" y="420" width="1520" height="340" as="geometry" />
        </mxCell>
        <mxCell id="SS5DbQR998O7tuINjmSE-18" value="" style="points=[[0.145,0.145,0],[0.5,0,0],[0.855,0.145,0],[1,0.5,0],[0.855,0.855,0],[0.5,1,0],[0.145,0.855,0],[0,0.5,0]];shape=mxgraph.bpmn.event;html=1;verticalLabelPosition=bottom;labelBackgroundColor=#ffffff;verticalAlign=top;align=center;perimeter=ellipsePerimeter;outlineConnect=0;aspect=fixed;outline=standard;symbol=multiple;" parent="SS5DbQR998O7tuINjmSE-3" vertex="1">
          <mxGeometry x="50" y="70" width="50" height="50" as="geometry" />
        </mxCell>
        <mxCell id="SS5DbQR998O7tuINjmSE-27" value="App Startup" style="points=[[0.25,0,0],[0.5,0,0],[0.75,0,0],[1,0.25,0],[1,0.5,0],[1,0.75,0],[0.75,1,0],[0.5,1,0],[0.25,1,0],[0,0.75,0],[0,0.5,0],[0,0.25,0]];shape=mxgraph.bpmn.task2;whiteSpace=wrap;rectStyle=rounded;size=10;html=1;container=1;expand=0;collapsible=0;taskMarker=abstract;" parent="SS5DbQR998O7tuINjmSE-3" vertex="1">
          <mxGeometry x="160" y="65" width="90" height="60" as="geometry" />
        </mxCell>
        <mxCell id="SS5DbQR998O7tuINjmSE-28" value="Define Route" style="points=[[0.25,0,0],[0.5,0,0],[0.75,0,0],[1,0.25,0],[1,0.5,0],[1,0.75,0],[0.75,1,0],[0.5,1,0],[0.25,1,0],[0,0.75,0],[0,0.5,0],[0,0.25,0]];shape=mxgraph.bpmn.task2;whiteSpace=wrap;rectStyle=rounded;size=10;html=1;container=1;expand=0;collapsible=0;taskMarker=abstract;" parent="SS5DbQR998O7tuINjmSE-3" vertex="1">
          <mxGeometry x="160" y="180" width="90" height="60" as="geometry" />
        </mxCell>
        <mxCell id="SS5DbQR998O7tuINjmSE-29" style="edgeStyle=orthogonalEdgeStyle;rounded=0;orthogonalLoop=1;jettySize=auto;html=1;entryX=0;entryY=0.5;entryDx=0;entryDy=0;entryPerimeter=0;" parent="SS5DbQR998O7tuINjmSE-3" source="SS5DbQR998O7tuINjmSE-18" target="SS5DbQR998O7tuINjmSE-27" edge="1">
          <mxGeometry relative="1" as="geometry" />
        </mxCell>
        <mxCell id="SS5DbQR998O7tuINjmSE-30" style="edgeStyle=orthogonalEdgeStyle;rounded=0;orthogonalLoop=1;jettySize=auto;html=1;entryX=0;entryY=0.5;entryDx=0;entryDy=0;entryPerimeter=0;" parent="SS5DbQR998O7tuINjmSE-3" source="SS5DbQR998O7tuINjmSE-18" target="SS5DbQR998O7tuINjmSE-28" edge="1">
          <mxGeometry relative="1" as="geometry">
            <Array as="points">
              <mxPoint x="75" y="210" />
            </Array>
          </mxGeometry>
        </mxCell>
        <mxCell id="SS5DbQR998O7tuINjmSE-64" value="Click popup?" style="points=[[0.25,0.25,0],[0.5,0,0],[0.75,0.25,0],[1,0.5,0],[0.75,0.75,0],[0.5,1,0],[0.25,0.75,0],[0,0.5,0]];shape=mxgraph.bpmn.gateway2;html=1;verticalLabelPosition=middle;labelBackgroundColor=#ffffff;verticalAlign=middle;align=right;perimeter=rhombusPerimeter;outlineConnect=0;outline=none;symbol=none;gwType=exclusive;labelPosition=left;" parent="SS5DbQR998O7tuINjmSE-3" vertex="1">
          <mxGeometry x="1115" y="60" width="40" height="40" as="geometry" />
        </mxCell>
        <mxCell id="SS5DbQR998O7tuINjmSE-65" value="View Event Details" style="points=[[0.25,0,0],[0.5,0,0],[0.75,0,0],[1,0.25,0],[1,0.5,0],[1,0.75,0],[0.75,1,0],[0.5,1,0],[0.25,1,0],[0,0.75,0],[0,0.5,0],[0,0.25,0]];shape=mxgraph.bpmn.task2;whiteSpace=wrap;rectStyle=rounded;size=10;html=1;container=1;expand=0;collapsible=0;taskMarker=abstract;" parent="SS5DbQR998O7tuINjmSE-3" vertex="1">
          <mxGeometry x="1200" y="50" width="90" height="60" as="geometry" />
        </mxCell>
        <mxCell id="SS5DbQR998O7tuINjmSE-66" value="" style="points=[[0.25,0.25,0],[0.5,0,0],[0.75,0.25,0],[1,0.5,0],[0.75,0.75,0],[0.5,1,0],[0.25,0.75,0],[0,0.5,0]];shape=mxgraph.bpmn.gateway2;html=1;verticalLabelPosition=bottom;labelBackgroundColor=#ffffff;verticalAlign=top;align=center;perimeter=rhombusPerimeter;outlineConnect=0;outline=none;symbol=none;gwType=exclusive;" parent="SS5DbQR998O7tuINjmSE-3" vertex="1">
          <mxGeometry x="1330" y="60" width="40" height="40" as="geometry" />
        </mxCell>
        <mxCell id="KeQbcnE_eU9TIYmiH5Cr-21" style="edgeStyle=orthogonalEdgeStyle;rounded=0;orthogonalLoop=1;jettySize=auto;html=1;entryX=0;entryY=0.5;entryDx=0;entryDy=0;entryPerimeter=0;" edge="1" parent="SS5DbQR998O7tuINjmSE-3" source="SS5DbQR998O7tuINjmSE-64" target="SS5DbQR998O7tuINjmSE-65">
          <mxGeometry relative="1" as="geometry" />
        </mxCell>
        <mxCell id="KeQbcnE_eU9TIYmiH5Cr-24" value="yes" style="edgeLabel;html=1;align=center;verticalAlign=bottom;resizable=0;points=[];labelPosition=center;verticalLabelPosition=top;" vertex="1" connectable="0" parent="KeQbcnE_eU9TIYmiH5Cr-21">
          <mxGeometry x="-0.2935" y="1" relative="1" as="geometry">
            <mxPoint as="offset" />
          </mxGeometry>
        </mxCell>
        <mxCell id="KeQbcnE_eU9TIYmiH5Cr-22" style="edgeStyle=orthogonalEdgeStyle;rounded=0;orthogonalLoop=1;jettySize=auto;html=1;entryX=0.5;entryY=1;entryDx=0;entryDy=0;entryPerimeter=0;" edge="1" parent="SS5DbQR998O7tuINjmSE-3" source="SS5DbQR998O7tuINjmSE-64" target="SS5DbQR998O7tuINjmSE-66">
          <mxGeometry relative="1" as="geometry">
            <Array as="points">
              <mxPoint x="1135" y="160" />
              <mxPoint x="1350" y="160" />
            </Array>
          </mxGeometry>
        </mxCell>
        <mxCell id="KeQbcnE_eU9TIYmiH5Cr-25" value="no" style="edgeLabel;html=1;align=center;verticalAlign=bottom;resizable=0;points=[];labelPosition=center;verticalLabelPosition=top;" vertex="1" connectable="0" parent="KeQbcnE_eU9TIYmiH5Cr-22">
          <mxGeometry x="-0.0651" y="3" relative="1" as="geometry">
            <mxPoint y="3" as="offset" />
          </mxGeometry>
        </mxCell>
        <mxCell id="KeQbcnE_eU9TIYmiH5Cr-23" style="edgeStyle=orthogonalEdgeStyle;rounded=0;orthogonalLoop=1;jettySize=auto;html=1;entryX=0;entryY=0.5;entryDx=0;entryDy=0;entryPerimeter=0;" edge="1" parent="SS5DbQR998O7tuINjmSE-3" source="SS5DbQR998O7tuINjmSE-65" target="SS5DbQR998O7tuINjmSE-66">
          <mxGeometry relative="1" as="geometry" />
        </mxCell>
        <mxCell id="KeQbcnE_eU9TIYmiH5Cr-20" style="edgeStyle=orthogonalEdgeStyle;rounded=0;orthogonalLoop=1;jettySize=auto;html=1;entryX=0.5;entryY=0;entryDx=0;entryDy=0;entryPerimeter=0;" edge="1" parent="SS5DbQR998O7tuINjmSE-1" source="SS5DbQR998O7tuINjmSE-60" target="SS5DbQR998O7tuINjmSE-64">
          <mxGeometry relative="1" as="geometry" />
        </mxCell>
        <mxCell id="KeQbcnE_eU9TIYmiH5Cr-27" style="edgeStyle=orthogonalEdgeStyle;rounded=0;orthogonalLoop=1;jettySize=auto;html=1;entryX=0.5;entryY=1;entryDx=0;entryDy=0;entryPerimeter=0;" edge="1" parent="SS5DbQR998O7tuINjmSE-1" source="SS5DbQR998O7tuINjmSE-66" target="SS5DbQR998O7tuINjmSE-67">
          <mxGeometry relative="1" as="geometry" />
        </mxCell>
      </root>
    </mxGraphModel>
  </diagram>
</mxfile>
